{
  "accessors": [
    {
      "bufferView": 2,
      "componentType": 5126,
      "count": 60733,
      "max": [
        31.78399658203125,
        18.245502471923828,
        31.323333740234375
      ],
      "min": [
        -31.78399658203125,
        -0.05515720695257187,
        -31.323333740234375
      ],
      "type": "VEC3"
    },
    {
      "bufferView": 2,
      "byteOffset": 728796,
      "componentType": 5126,
      "count": 60733,
      "max": [
        1.0,
        1.0,
        1.0
      ],
      "min": [
        -1.0,
        -1.0,
        -1.0
      ],
      "type": "VEC3"
    },
    {
      "bufferView": 1,
      "componentType": 5126,
      "count": 60733,
      "max": [
        0.991254985332489,
        0.9922245740890503
      ],
      "min": [
        0.008078720420598984,
        0.007885336875915527
      ],
      "type": "VEC2"
    },
    {
      "bufferView": 1,
      "byteOffset": 485864,
      "componentType": 5126,
      "count": 60733,
      "max": [
        0.991254985332489,
        0.9922245740890503
      ],
      "min": [
        0.008078720420598984,
        0.007885336875915527
      ],
      "type": "VEC2"
    },
    {
      "bufferView": 1,
      "byteOffset": 971728,
      "componentType": 5126,
      "count": 60733,
      "max": [
        0.991254985332489,
        0.9922245740890503
      ],
      "min": [
        0.008078720420598984,
        0.007885336875915527
      ],
      "type": "VEC2"
    },
    {
      "bufferView": 1,
      "byteOffset": 1457592,
      "componentType": 5126,
      "count": 60733,
      "max": [
        0.991254985332489,
        0.9922245740890503
      ],
      "min": [
        0.008078720420598984,
        0.007885336875915527
      ],
      "type": "VEC2"
    },
    {
      "bufferView": 1,
      "byteOffset": 1943456,
      "componentType": 5126,
      "count": 60733,
      "max": [
        0.991254985332489,
        0.9922245740890503
      ],
      "min": [
        0.008078720420598984,
        0.007885336875915527
      ],
      "type": "VEC2"
    },
    {
      "bufferView": 1,
      "byteOffset": 2429320,
      "componentType": 5126,
      "count": 60733,
      "max": [
        0.991254985332489,
        0.9922245740890503
      ],
      "min": [
        0.008078720420598984,
        0.007885336875915527
      ],
      "type": "VEC2"
    },
    {
      "bufferView": 1,
      "byteOffset": 2915184,
      "componentType": 5126,
      "count": 60733,
      "max": [
        0.991254985332489,
        0.9922245740890503
      ],
      "min": [
        0.008078720420598984,
        0.007885336875915527
      ],
      "type": "VEC2"
    },
    {
      "bufferView": 1,
      "byteOffset": 3401048,
      "componentType": 5126,
      "count": 60733,
      "max": [
        0.991254985332489,
        0.9922245740890503
      ],
      "min": [
        0.008078720420598984,
        0.007885336875915527
      ],
      "type": "VEC2"
    },
    {
      "bufferView": 1,
      "byteOffset": 3886912,
      "componentType": 5126,
      "count": 60733,
      "max": [
        0.991254985332489,
        0.9922245740890503
      ],
      "min": [
        0.008078720420598984,
        0.007885336875915527
      ],
      "type": "VEC2"
    },
    {
      "bufferView": 0,
      "componentType": 5125,
      "count": 311577,
      "type": "SCALAR"
    },
    {
      "bufferView": 2,
      "byteOffset": 1457592,
      "componentType": 5126,
      "count": 1285,
      "max": [
        22.901996612548828,
        12.259994506835938,
        20.76456069946289
      ],
      "min": [
        -25.60501480102539,
        8.396151542663574,
        -20.72066879272461
      ],
      "type": "VEC3"
    },
    {
      "bufferView": 2,
      "byteOffset": 1473012,
      "componentType": 5126,
      "count": 1285,
      "max": [
        0.9975913763046265,
        1.0,
        0.9915666580200195
      ],
      "min": [
        -0.9990993142127991,
        -0.999984860420227,
        -0.9954774975776672
      ],
      "type": "VEC3"
    },
    {
      "bufferView": 1,
      "byteOffset": 4372776,
      "componentType": 5126,
      "count": 1285,
      "max": [
        0.6573962569236755,
        0.9299705028533936
      ],
      "min": [
        0.34336480498313904,
        0.010947823524475098
      ],
      "type": "VEC2"
    },
    {
      "bufferView": 1,
      "byteOffset": 4383056,
      "componentType": 5126,
      "count": 1285,
      "max": [
        0.6573962569236755,
        0.9299705028533936
      ],
      "min": [
        0.34336480498313904,
        0.010947823524475098
      ],
      "type": "VEC2"
    },
    {
      "bufferView": 1,
      "byteOffset": 4393336,
      "componentType": 5126,
      "count": 1285,
      "max": [
        0.6573962569236755,
        0.9299705028533936
      ],
      "min": [
        0.34336480498313904,
        0.010947823524475098
      ],
      "type": "VEC2"
    },
    {
      "bufferView": 1,
      "byteOffset": 4403616,
      "componentType": 5126,
      "count": 1285,
      "max": [
        0.6573962569236755,
        0.9299705028533936
      ],
      "min": [
        0.34336480498313904,
        0.010947823524475098
      ],
      "type": "VEC2"
    },
    {
      "bufferView": 1,
      "byteOffset": 4413896,
      "componentType": 5126,
      "count": 1285,
      "max": [
        0.6573962569236755,
        0.9299705028533936
      ],
      "min": [
        0.34336480498313904,
        0.010947823524475098
      ],
      "type": "VEC2"
    },
    {
      "bufferView": 1,
      "byteOffset": 4424176,
      "componentType": 5126,
      "count": 1285,
      "max": [
        0.6573962569236755,
        0.9299705028533936
      ],
      "min": [
        0.34336480498313904,
        0.010947823524475098
      ],
      "type": "VEC2"
    },
    {
      "bufferView": 1,
      "byteOffset": 4434456,
      "componentType": 5126,
      "count": 1285,
      "max": [
        0.6573962569236755,
        0.9299705028533936
      ],
      "min": [
        0.34336480498313904,
        0.010947823524475098
      ],
      "type": "VEC2"
    },
    {
      "bufferView": 1,
      "byteOffset": 4444736,
      "componentType": 5126,
      "count": 1285,
      "max": [
        0.6573962569236755,
        0.9299705028533936
      ],
      "min": [
        0.34336480498313904,
        0.010947823524475098
      ],
      "type": "VEC2"
    },
    {
      "bufferView": 1,
      "byteOffset": 4455016,
      "componentType": 5126,
      "count": 1285,
      "max": [
        0.6573962569236755,
        0.9299705028533936
      ],
      "min": [
        0.34336480498313904,
        0.010947823524475098
      ],
      "type": "VEC2"
    },
    {
      "bufferView": 0,
      "byteOffset": 1246308,
      "componentType": 5125,
      "count": 6612,
      "type": "SCALAR"
    }
  ],
  "asset": {
    "extras": {
      "author": "t.sullivan (https://sketchfab.com/t.sullivan)",
      "license": "CC-BY-4.0 (http://creativecommons.org/licenses/by/4.0/)",
      "source": "https://sketchfab.com/3d-models/plant-cell-bffe941f80fb440093d2afe318613a4e",
      "title": "Plant Cell"
    },
    "generator": "Sketchfab-12.66.0",
    "version": "2.0"
  },
  "bufferViews": [
    {
      "buffer": 0,
      "byteLength": 1272756,
      "name": "floatBufferViews",
      "target": 34963
    },
    {
      "buffer": 0,
      "byteLength": 4465296,
      "byteOffset": 1272756,
      "byteStride": 8,
      "name": "floatBufferViews",
      "target": 34962
    },
    {
      "buffer": 0,
      "byteLength": 1488432,
      "byteOffset": 5738052,
      "byteStride": 12,
      "name": "floatBufferViews",
      "target": 34962
    }
  ],
  "buffers": [
    {
      "byteLength": 7226484,
      "uri": "scene.bin"
    }
  ],
  "images": [
    {
      "uri": "textures/Material_171_baseColor.png"
    }
  ],
  "materials": [
    {
      "doubleSided": true,
      "name": "Material_171",
      "pbrMetallicRoughness": {
        "baseColorTexture": {
          "index": 0
        },
        "metallicFactor": 0.0,
        "roughnessFactor": 0.0
      }
    },
    {
      "doubleSided": true,
      "name": "Material_172",
      "pbrMetallicRoughness": {
        "baseColorTexture": {
          "index": 0
        },
        "metallicFactor": 0.0,
        "roughnessFactor": 0.0
      }
    }
  ],
  "meshes": [
    {
      "name": "node_id31_Material_171_0",
      "primitives": [
        {
          "attributes": {
            "NORMAL": 1,
            "POSITION": 0,
            "TEXCOORD_0": 2,
            "TEXCOORD_1": 3,
            "TEXCOORD_2": 4,
            "TEXCOORD_3": 5,
            "TEXCOORD_4": 6,
            "TEXCOORD_5": 7,
            "TEXCOORD_6": 8,
            "TEXCOORD_7": 9,
            "TEXCOORD_8": 10
          },
          "indices": 11,
          "material": 0,
          "mode": 4
        }
      ]
    },
    {
      "name": "node_id33_Material_172_0",
      "primitives": [
        {
          "attributes": {
            "NORMAL": 13,
            "POSITION": 12,
            "TEXCOORD_0": 14,
            "TEXCOORD_1": 15,
            "TEXCOORD_2": 16,
            "TEXCOORD_3": 17,
            "TEXCOORD_4": 18,
            "TEXCOORD_5": 19,
            "TEXCOORD_6": 20,
            "TEXCOORD_7": 21,
            "TEXCOORD_8": 22
          },
          "indices": 23,
          "material": 1,
          "mode": 4
        }
      ]
    }
  ],
  "nodes": [
    {
      "children": [
        1
      ],
      "matrix": [
        1.0,
        0.0,
        0.0,
        0.0,
        0.0,
        2.220446049250313e-16,
        -1.0,
        0.0,
        0.0,
        1.0,
        2.220446049250313e-16,
        0.0,
        0.0,
        0.0,
        0.0,
        1.0
      ],
      "name": "Sketchfab_model"
    },
    {
      "children": [
        2
      ],
      "matrix": [
        1.0,
        0.0,
        0.0,
        0.0,
        0.0,
        0.0,
        1.0,
        0.0,
        0.0,
        -1.0,
        0.0,
        0.0,
        0.0,
        0.0,
        0.0,
        1.0
      ],
      "name": "d034683460714d8992d346d0c9ae4fa3.fbx"
    },
    {
      "children": [
        3
      ],
      "name": "RootNode"
    },
    {
      "children": [
        4
      ],
      "name": "root"
    },
    {
      "children": [
        5,
        7
      ],
      "matrix": [
        0.0010000000474974513,
        0.0,
        0.0,
        0.0,
        0.0,
        0.0010000000474974513,
        0.0,
        0.0,
        0.0,
        0.0,
        0.0010000000474974513,
        0.0,
        0.0,
        0.0,
        0.0,
        1.0
      ],
      "name": "node_id35"
    },
    {
      "children": [
        6
      ],
      "matrix": [
        8.054368019104004,
        0.0,
        0.0,
        0.0,
        0.0,
        8.054368019104004,
        0.0,
        0.0,
        0.0,
        0.0,
        8.054368019104004,
        0.0,
        0.0,
        -73.25586700439453,
        256.0,
        1.0
      ],
      "name": "node_id31"
    },
    {
      "mesh": 0,
      "name": "node_id31_Material_171_0"
    },
    {
      "children": [
        8
      ],
      "matrix": [
        8.054368019104004,
        0.0,
        0.0,
        0.0,
        0.0,
        8.054368019104004,
        0.0,
        0.0,
        0.0,
        0.0,
        8.054368019104004,
        0.0,
        0.0,
        -73.25586700439453,
        256.0,
        1.0
      ],
      "name": "node_id33"
    },
    {
      "mesh": 1,
      "name": "node_id33_Material_172_0"
    }
  ],
  "samplers": [
    {
      "magFilter": 9729,
      "minFilter": 9987,
      "wrapS": 10497,
      "wrapT": 10497
    }
  ],
  "scene": 0,
  "scenes": [
    {
      "name": "Sketchfab_Scene",
      "nodes": [
        0
      ]
    }
  ],
  "textures": [
    {
      "sampler": 0,
      "source": 0
    }
  ]
}
