{
  "accessors": [
    {
      "bufferView": 2,
      "componentType": 5126,
      "count": 5981,
      "max": [
        98.58100128173828,
        42.823001861572266,
        85.21800231933594
      ],
      "min": [
        -84.66400146484375,
        -42.823001861572266,
        -92.87899780273438
      ],
      "type": "VEC3"
    },
    {
      "bufferView": 2,
      "byteOffset": 71772,
      "componentType": 5126,
      "count": 5981,
      "max": [
        0.9997355341911316,
        0.9998615980148315,
        0.9996576309204102
      ],
      "min": [
        -0.9999315738677979,
        -0.9998615980148315,
        -0.9998960494995117
      ],
      "type": "VEC3"
    },
    {
      "bufferView": 3,
      "componentType": 5126,
      "count": 5981,
      "max": [
        0.9999982118606567,
        0.9997462630271912,
        0.9997357130050659,
        1.0
      ],
      "min": [
        -0.9862420558929443,
        -0.9999805688858032,
        -0.9946065545082092,
        -1.0
      ],
      "type": "VEC4"
    },
    {
      "bufferView": 1,
      "componentType": 5126,
      "count": 5981,
      "max": [
        0.8999999761581421,
        0.9259999990463257
      ],
      "min": [
        0.07699999958276749,
        0.04399999976158142
      ],
      "type": "VEC2"
    },
    {
      "bufferView": 0,
      "componentType": 5125,
      "count": 35274,
      "type": "SCALAR"
    }
  ],
  "asset": {
    "extras": {
      "author": "Alejandro Guzmán (https://sketchfab.com/Glifo)",
      "license": "CC-BY-SA-4.0 (http://creativecommons.org/licenses/by-sa/4.0/)",
      "source": "https://sketchfab.com/3d-models/common-kingfisher-9dcdf52fc1fc4d8dbbbabfff3b6ef887",
      "title": "Common Kingfisher"
    },
    "generator": "Sketchfab-12.67.0",
    "version": "2.0"
  },
  "bufferViews": [
    {
      "buffer": 0,
      "byteLength": 141096,
      "name": "floatBufferViews",
      "target": 34963
    },
    {
      "buffer": 0,
      "byteLength": 47848,
      "byteOffset": 141096,
      "byteStride": 8,
      "name": "floatBufferViews",
      "target": 34962
    },
    {
      "buffer": 0,
      "byteLength": 143544,
      "byteOffset": 188944,
      "byteStride": 12,
      "name": "floatBufferViews",
      "target": 34962
    },
    {
      "buffer": 0,
      "byteLength": 95696,
      "byteOffset": 332488,
      "byteStride": 16,
      "name": "floatBufferViews",
      "target": 34962
    }
  ],
  "buffers": [
    {
      "byteLength": 428184,
      "uri": "scene.bin"
    }
  ],
  "images": [
    {
      "uri": "textures/Textured_baseColor.jpeg"
    },
    {
      "uri": "textures/Textured_normal.jpeg"
    }
  ],
  "materials": [
    {
      "doubleSided": true,
      "emissiveTexture": {
        "index": 0
      },
      "name": "Textured",
      "normalTexture": {
        "index": 1
      },
      "pbrMetallicRoughness": {
        "baseColorTexture": {
          "index": 0
        },
        "metallicFactor": 0.0,
        "roughnessFactor": 0.6
      }
    }
  ],
  "meshes": [
    {
      "name": "Object_0",
      "primitives": [
        {
          "attributes": {
            "NORMAL": 1,
            "POSITION": 0,
            "TANGENT": 2,
            "TEXCOORD_0": 3
          },
          "indices": 4,
          "material": 0,
          "mode": 4
        }
      ]
    }
  ],
  "nodes": [
    {
      "children": [
        1
      ],
      "matrix": [
        1.0,
        0.0,
        0.0,
        0.0,
        0.0,
        2.220446049250313e-16,
        -1.0,
        0.0,
        0.0,
        1.0,
        2.220446049250313e-16,
        0.0,
        0.0,
        0.0,
        0.0,
        1.0
      ],
      "name": "Sketchfab_model"
    },
    {
      "children": [
        2
      ],
      "name": "model.obj.cleaner"
    },
    {
      "mesh": 0,
      "name": "Object_2"
    }
  ],
  "samplers": [
    {
      "magFilter": 9729,
      "minFilter": 9987,
      "wrapS": 10497,
      "wrapT": 10497
    }
  ],
  "scene": 0,
  "scenes": [
    {
      "name": "Sketchfab_Scene",
      "nodes": [
        0
      ]
    }
  ],
  "textures": [
    {
      "sampler": 0,
      "source": 0
    },
    {
      "sampler": 0,
      "source": 1
    }
  ]
}
