{
  "accessors": [
    {
      "bufferView": 2,
      "componentType": 5126,
      "count": 9537,
      "max": [
        2.0915613174438477,
        2.0890936851501465,
        2.123507499694824
      ],
      "min": [
        -2.0915613174438477,
        -1.14310622215271,
        -1.1553006172180176
      ],
      "type": "VEC3"
    },
    {
      "bufferView": 2,
      "byteOffset": 114444,
      "componentType": 5126,
      "count": 9537,
      "max": [
        1.0,
        1.0,
        1.0
      ],
      "min": [
        -1.0,
        -1.0,
        -1.0
      ],
      "type": "VEC3"
    },
    {
      "bufferView": 1,
      "componentType": 5126,
      "count": 9537,
      "max": [
        0.9924643039703369,
        0.998046875
      ],
      "min": [
        0.0019531266298145056,
        0.0019531266298145056
      ],
      "type": "VEC2"
    },
    {
      "bufferView": 0,
      "componentType": 5125,
      "count": 54144,
      "type": "SCALAR"
    },
    {
      "bufferView": 2,
      "byteOffset": 228888,
      "componentType": 5126,
      "count": 118,
      "max": [
        0.41927245259284973,
        0.3097326159477234,
        0.5187144875526428
      ],
      "min": [
        -0.41927245259284973,
        -0.1991288661956787,
        -0.31983035802841187
      ],
      "type": "VEC3"
    },
    {
      "bufferView": 2,
      "byteOffset": 230304,
      "componentType": 5126,
      "count": 118,
      "max": [
        0.9807852506637573,
        1.0,
        0.9807859063148499
      ],
      "min": [
        -0.9807854294776917,
        -1.0,
        -0.9807848334312439
      ],
      "type": "VEC3"
    },
    {
      "bufferView": 1,
      "byteOffset": 76296,
      "componentType": 5126,
      "count": 118,
      "max": [
        0.998046875,
        0.99609375
      ],
      "min": [
        0.0019530932186171412,
        0.0019531254656612873
      ],
      "type": "VEC2"
    },
    {
      "bufferView": 0,
      "byteOffset": 216576,
      "componentType": 5125,
      "count": 528,
      "type": "SCALAR"
    }
  ],
  "asset": {
    "extras": {
      "author": "luardimensi (https://sketchfab.com/luardimensi)",
      "license": "CC-BY-4.0 (http://creativecommons.org/licenses/by/4.0/)",
      "source": "https://sketchfab.com/3d-models/diamond-structure-ba09212da83a452d97f73a8eac600286",
      "title": "Diamond structure"
    },
    "generator": "Sketchfab-12.68.0",
    "version": "2.0"
  },
  "bufferViews": [
    {
      "buffer": 0,
      "byteLength": 218688,
      "name": "floatBufferViews",
      "target": 34963
    },
    {
      "buffer": 0,
      "byteLength": 77240,
      "byteOffset": 218688,
      "byteStride": 8,
      "name": "floatBufferViews",
      "target": 34962
    },
    {
      "buffer": 0,
      "byteLength": 231720,
      "byteOffset": 295928,
      "byteStride": 12,
      "name": "floatBufferViews",
      "target": 34962
    }
  ],
  "buffers": [
    {
      "byteLength": 527648,
      "uri": "scene.bin"
    }
  ],
  "extensionsRequired": [
    "KHR_materials_pbrSpecularGlossiness"
  ],
  "extensionsUsed": [
    "KHR_materials_pbrSpecularGlossiness"
  ],
  "images": [
    {
      "uri": "textures/diamond_emissive.jpeg"
    },
    {
      "uri": "textures/ThinRing1_diffuse.png"
    },
    {
      "uri": "textures/ThinRing1_emissive.jpeg"
    }
  ],
  "materials": [
    {
      "doubleSided": true,
      "emissiveFactor": [
        1.0,
        1.0,
        1.0
      ],
      "emissiveTexture": {
        "index": 0
      },
      "extensions": {
        "KHR_materials_pbrSpecularGlossiness": {
          "diffuseFactor": [
            0.5,
            0.5,
            0.5,
            1.0
          ],
          "glossinessFactor": 0.0,
          "specularFactor": [
            0.05,
            0.05,
            0.05
          ]
        }
      },
      "name": "diamond"
    },
    {
      "alphaMode": "BLEND",
      "doubleSided": true,
      "emissiveFactor": [
        1.0,
        1.0,
        1.0
      ],
      "emissiveTexture": {
        "index": 2
      },
      "extensions": {
        "KHR_materials_pbrSpecularGlossiness": {
          "diffuseFactor": [
            1.0,
            1.0,
            1.0,
            0.7212271341463414
          ],
          "diffuseTexture": {
            "index": 1
          },
          "glossinessFactor": 1.0,
          "specularFactor": [
            1.0,
            1.0,
            1.0
          ]
        }
      },
      "name": "ThinRing1"
    }
  ],
  "meshes": [
    {
      "name": "diamond_diamond_0",
      "primitives": [
        {
          "attributes": {
            "NORMAL": 1,
            "POSITION": 0,
            "TEXCOORD_0": 2
          },
          "indices": 3,
          "material": 0,
          "mode": 4
        }
      ]
    },
    {
      "name": "ThinRing1_ThinRing1_0",
      "primitives": [
        {
          "attributes": {
            "NORMAL": 5,
            "POSITION": 4,
            "TEXCOORD_0": 6
          },
          "indices": 7,
          "material": 1,
          "mode": 4
        }
      ]
    }
  ],
  "nodes": [
    {
      "children": [
        1
      ],
      "matrix": [
        1.0,
        0.0,
        0.0,
        0.0,
        0.0,
        2.220446049250313e-16,
        -1.0,
        0.0,
        0.0,
        1.0,
        2.220446049250313e-16,
        0.0,
        0.0,
        0.0,
        0.0,
        1.0
      ],
      "name": "Sketchfab_model"
    },
    {
      "children": [
        2
      ],
      "matrix": [
        1.0,
        0.0,
        0.0,
        0.0,
        0.0,
        0.0,
        1.0,
        0.0,
        0.0,
        -1.0,
        0.0,
        0.0,
        0.0,
        0.0,
        0.0,
        1.0
      ],
      "name": "2f09bec109cb414fa3ec190334db9ed2.fbx"
    },
    {
      "children": [
        3,
        5
      ],
      "name": "RootNode"
    },
    {
      "children": [
        4
      ],
      "name": "diamond"
    },
    {
      "mesh": 0,
      "name": "diamond_diamond_0"
    },
    {
      "children": [
        6
      ],
      "name": "ThinRing1"
    },
    {
      "mesh": 1,
      "name": "ThinRing1_ThinRing1_0"
    }
  ],
  "samplers": [
    {
      "magFilter": 9729,
      "minFilter": 9987,
      "wrapS": 10497,
      "wrapT": 10497
    }
  ],
  "scene": 0,
  "scenes": [
    {
      "name": "Sketchfab_Scene",
      "nodes": [
        0
      ]
    }
  ],
  "textures": [
    {
      "sampler": 0,
      "source": 0
    },
    {
      "sampler": 0,
      "source": 1
    },
    {
      "sampler": 0,
      "source": 2
    }
  ]
}
