{
  "accessors": [
    {
      "bufferView": 2,
      "componentType": 5126,
      "count": 6174,
      "max": [
        70.63248443603516,
        10.000004768371582,
        80.41098022460938
      ],
      "min": [
        -70.63249206542969,
        -9.99999713897705,
        -80.41098022460938
      ],
      "type": "VEC3"
    },
    {
      "bufferView": 2,
      "byteOffset": 74088,
      "componentType": 5126,
      "count": 6174,
      "max": [
        1.0,
        1.0,
        1.0
      ],
      "min": [
        -1.0,
        -1.0,
        -1.0
      ],
      "type": "VEC3"
    },
    {
      "bufferView": 1,
      "componentType": 5126,
      "count": 6174,
      "max": [
        0.9979999661445618,
        0.9914235472679138
      ],
      "min": [
        0.0020000000949949026,
        0.0020000000949949026
      ],
      "type": "VEC2"
    },
    {
      "bufferView": 1,
      "byteOffset": 49392,
      "componentType": 5126,
      "count": 6174,
      "max": [
        0.9979999661445618,
        0.9914235472679138
      ],
      "min": [
        0.0020000000949949026,
        0.0020000000949949026
      ],
      "type": "VEC2"
    },
    {
      "bufferView": 1,
      "byteOffset": 98784,
      "componentType": 5126,
      "count": 6174,
      "max": [
        0.9979999661445618,
        0.9914235472679138
      ],
      "min": [
        0.0020000000949949026,
        0.0020000000949949026
      ],
      "type": "VEC2"
    },
    {
      "bufferView": 1,
      "byteOffset": 148176,
      "componentType": 5126,
      "count": 6174,
      "max": [
        0.9979999661445618,
        0.9914235472679138
      ],
      "min": [
        0.0020000000949949026,
        0.0020000000949949026
      ],
      "type": "VEC2"
    },
    {
      "bufferView": 1,
      "byteOffset": 197568,
      "componentType": 5126,
      "count": 6174,
      "max": [
        0.9979999661445618,
        0.9914235472679138
      ],
      "min": [
        0.0020000000949949026,
        0.0020000000949949026
      ],
      "type": "VEC2"
    },
    {
      "bufferView": 0,
      "componentType": 5125,
      "count": 31824,
      "type": "SCALAR"
    }
  ],
  "asset": {
    "extras": {
      "author": "dbr3d (https://sketchfab.com/dbr3d)",
      "license": "CC-BY-4.0 (http://creativecommons.org/licenses/by/4.0/)",
      "source": "https://sketchfab.com/3d-models/benzene-39e13538d4c149c9932360b8b1272572",
      "title": "Benzene"
    },
    "generator": "Sketchfab-12.68.0",
    "version": "2.0"
  },
  "bufferViews": [
    {
      "buffer": 0,
      "byteLength": 127296,
      "name": "floatBufferViews",
      "target": 34963
    },
    {
      "buffer": 0,
      "byteLength": 246960,
      "byteOffset": 127296,
      "byteStride": 8,
      "name": "floatBufferViews",
      "target": 34962
    },
    {
      "buffer": 0,
      "byteLength": 148176,
      "byteOffset": 374256,
      "byteStride": 12,
      "name": "floatBufferViews",
      "target": 34962
    }
  ],
  "buffers": [
    {
      "byteLength": 522432,
      "uri": "scene.bin"
    }
  ],
  "images": [
    {
      "uri": "textures/benceno_baseColor.png"
    },
    {
      "uri": "textures/benceno_metallicRoughness.png"
    }
  ],
  "materials": [
    {
      "name": "benceno",
      "occlusionTexture": {
        "index": 2
      },
      "pbrMetallicRoughness": {
        "baseColorFactor": [
          0.9500000000000001,
          0.9500000000000001,
          0.9500000000000001,
          1.0
        ],
        "baseColorTexture": {
          "index": 0
        },
        "metallicRoughnessTexture": {
          "index": 1
        },
        "roughnessFactor": 0.05031446540880504
      }
    }
  ],
  "meshes": [
    {
      "name": "Object_0",
      "primitives": [
        {
          "attributes": {
            "NORMAL": 1,
            "POSITION": 0,
            "TEXCOORD_0": 2,
            "TEXCOORD_1": 3,
            "TEXCOORD_2": 4,
            "TEXCOORD_3": 5,
            "TEXCOORD_4": 6
          },
          "indices": 7,
          "material": 0,
          "mode": 4
        }
      ]
    }
  ],
  "nodes": [
    {
      "children": [
        1
      ],
      "matrix": [
        3.8638975620269775,
        0.0,
        0.0,
        0.0,
        0.0,
        8.579576076310719e-16,
        -3.8638975620269775,
        0.0,
        0.0,
        3.8638975620269775,
        8.579576076310719e-16,
        0.0,
        0.0,
        0.0,
        0.0,
        1.0
      ],
      "name": "Sketchfab_model"
    },
    {
      "children": [
        2
      ],
      "name": "root"
    },
    {
      "children": [
        3
      ],
      "matrix": [
        1.0,
        0.0,
        0.0,
        0.0,
        0.0,
        2.220446049250313e-16,
        1.0,
        0.0,
        0.0,
        -1.0,
        2.220446049250313e-16,
        0.0,
        0.0,
        0.0,
        0.0,
        1.0
      ],
      "name": "GLTF_SceneRootNode"
    },
    {
      "children": [
        4
      ],
      "name": "UnityGlTF_root_0"
    },
    {
      "children": [
        5
      ],
      "matrix": [
        0.009999999776482582,
        0.0,
        0.0,
        0.0,
        0.0,
        -1.1920929798847624e-09,
        -0.009999998845160007,
        0.0,
        0.0,
        0.009999998845160007,
        -1.1920929798847624e-09,
        0.0,
        0.0,
        0.0,
        0.0,
        1.0
      ],
      "name": "node_benceno_-1158_1"
    },
    {
      "mesh": 0,
      "name": "Object_5"
    }
  ],
  "samplers": [
    {
      "magFilter": 9729,
      "minFilter": 9729,
      "wrapS": 10497,
      "wrapT": 10497
    },
    {
      "magFilter": 9729,
      "minFilter": 9987,
      "wrapS": 10497,
      "wrapT": 10497
    }
  ],
  "scene": 0,
  "scenes": [
    {
      "name": "Sketchfab_Scene",
      "nodes": [
        0
      ]
    }
  ],
  "textures": [
    {
      "sampler": 0,
      "source": 0
    },
    {
      "sampler": 0,
      "source": 1
    },
    {
      "sampler": 1,
      "source": 1
    }
  ]
}
